<?xml version="1.0" encoding="UTF-8" standalone="no"?>
<!-- Created with Inkscape (http://www.inkscape.org/) -->

<svg
   version="1.1"
   id="svg1"
   width="1024"
   height="1024"
   viewBox="0 0 1024 1024"
   sodipodi:docname="Logo FM.svg"
   inkscape:version="1.4.2 (f4327f4, 2025-05-13)"
   xmlns:inkscape="http://www.inkscape.org/namespaces/inkscape"
   xmlns:sodipodi="http://sodipodi.sourceforge.net/DTD/sodipodi-0.dtd"
   xmlns="http://www.w3.org/2000/svg"
   xmlns:svg="http://www.w3.org/2000/svg">
  <defs
     id="defs1" />
  <sodipodi:namedview
     id="namedview1"
     pagecolor="#ffffff"
     bordercolor="#000000"
     borderopacity="0.25"
     inkscape:showpageshadow="2"
     inkscape:pageopacity="0.0"
     inkscape:pagecheckerboard="0"
     inkscape:deskcolor="#d1d1d1"
     showguides="true"
     inkscape:zoom="0.59040655"
     inkscape:cx="353.14649"
     inkscape:cy="564.86501"
     inkscape:window-width="1920"
     inkscape:window-height="1009"
     inkscape:window-x="-8"
     inkscape:window-y="-8"
     inkscape:window-maximized="1"
     inkscape:current-layer="svg1" />
  <path
     style="display:inline;opacity:1;fill:#000000"
     d="m 200.00936,210.7883 c 0,0 159.88772,-52.09824 312.58947,-65.87134 8.38363,0 143.12047,14.97076 311.39181,65.27251 0,13.17427 -0.89824,314.23626 -0.89824,314.23626 0,0 17.00669,229.71351 -310.73358,335.15147 C 238.81849,753.71794 204.09665,600.43373 201.55603,524.21506 199.01541,447.99639 200.00936,210.7883 200.00936,210.7883 Z"
     id="path1"
     sodipodi:nodetypes="cccccsc"
     sodipodi:insensitive="true" />
  <path
     style="display:inline;opacity:1;fill:#f2f2f2;stroke-width:0.928836"
     d="m 222.28332,228.21486 c 0,0 148.50947,-48.39072 290.34435,-61.18367 7.78702,0 132.93544,13.90538 289.23192,60.62745 0,12.23674 -0.83432,291.87396 -0.83432,291.87396 0,0 15.79643,213.36617 -288.62054,311.30074 C 258.33064,732.50745 226.07974,590.13156 223.71992,519.33692 c -2.35982,-70.79465 -1.4366,-291.12206 -1.4366,-291.12206 z"
     id="path2"
     sodipodi:nodetypes="cccccsc"
     sodipodi:insensitive="true" />
  <path
     style="display:inline;opacity:1;fill:#2ca02c"
     d="m 785.62807,236.51696 c 0,0 -178.45146,-52.39766 -274.26433,-54.79298 -1.19766,40.42105 -0.59883,232.3462 -0.59883,232.3462 0,0 156.31288,5.95832 274.02838,47.45515 0.42344,-19.47811 0.83478,-225.00837 0.83478,-225.00837 z"
     id="path4"
     sodipodi:insensitive="true" />
  <path
     style="display:inline;opacity:1;fill:#217821"
     d="m 237.13684,236.53801 c 0,0 178.45146,-52.39766 274.26433,-54.79298 1.19766,40.42105 0.59883,232.3462 0.59883,232.3462 0,0 -156.31288,5.95832 -274.02838,47.45515 -0.42344,-19.47811 -0.83478,-225.00837 -0.83478,-225.00837 z"
     id="path3"
     sodipodi:insensitive="true" />
  <path
     d="m 484.51172,235.42578 c -0.0637,0.001 -0.0996,0.006 -0.0996,0.006 l -174.4364,1.51953 c -0.73461,-0.016 -1.08808,0.59914 -1.13622,0.96354 -24.8048,187.74557 -16.38717,123.07312 -24.24379,182.23959 h 0.002 0.002 0.002 c 8.1e-4,0.36864 0.30631,1.6566 2.42188,1.38281 v 0 c 12.76223,-2.76829 64.3825,-11.65153 64.88086,-11.73633 1.86675,-0.16475 2.30078,-3.30078 2.30078,-3.30078 l 7.83398,-52.71875 c 0,0 93.99088,0.38133 95.69727,0.42383 2.23401,0.0556 2.53906,-2.96485 2.53906,-2.96485 0,0 5.50586,-36.41524 5.50586,-38.74414 0,-2.32891 -2.75195,-2.11718 -2.75195,-2.11718 l -95.48633,-0.21094 4.44726,-29.2168 c 0,0 102.89415,0.21094 104.58789,0.21094 1.69376,0 2.33008,-2.11719 2.33008,-2.11719 0,0 7.34434,-39.17461 7.6211,-41.70898 0.20163,-1.84644 -1.57138,-1.9205 -2.01758,-1.91016 z"
     style="display:inline;fill:#ffffff"
     id="path7"
     sodipodi:nodetypes="cccscccccccccscscccscscc"
     inkscape:label="F"
     sodipodi:insensitive="true" />
  <path
     style="display:inline;fill:#ffffff"
     d="m 512.35882,235.11342 76.11281,0.10586 c 0,0 1.48203,-0.21172 2.01133,1.69375 0.52929,1.90546 22.01872,77.70069 22.01872,77.70069 l 44.88433,-78.01827 c 0,0 0.43667,-0.86011 1.0189,-0.87334 0.58222,-0.0132 76.36,2.16327 76.36,2.16327 0,0 1.38039,0.1127 1.45979,1.19776 0.0794,1.08506 -11.93932,159.36364 -8.94517,181.52037 -3.8924,-0.29942 -63.22439,-15.69184 -66.71774,-14.7391 -0.10586,-2.22305 3.81093,-90.50967 5.50468,-92.20342 -2.01133,2.54062 -46.4267,79.24661 -46.4267,79.24661 0,0 -0.89825,1.19766 -2.24562,1.04796 -1.34737,-0.14971 -27.84561,-3.06901 -31.81286,-2.99416 -1.87135,-1.1228 -1.12281,-0.29941 -1.72164,-1.87134 -0.59883,-1.57193 -26.64795,-78.59649 -26.64795,-78.59649 l -11.40135,81.82085 c 0,0 -0.26465,2.22305 -1.82607,2.22305 -1.56143,0 -61.10241,0.16662 -61.10241,0.16662"
     id="path8"
     sodipodi:nodetypes="ccsccscsccccscsccsc"
     inkscape:label="M"
     sodipodi:insensitive="true" />
  <path
     style="display:inline;opacity:1;fill:#217821;fill-opacity:1"
     d="m 277.07408,630.98221 c -31.96757,-45.53047 -39.83224,-103.3207 -39.11384,-152.81613 0,0 104.79031,-38.32256 246.51796,-48.31171 -10.77895,1.19767 -115.59555,22.06903 -150.10095,132.55324 -0.59883,5.98831 -24.40765,97.12923 44.15843,171.68362 -3.48623,-2.32416 -62.73429,-42.23436 -101.4616,-103.10902 z"
     id="path9"
     sodipodi:nodetypes="cccccc"
     sodipodi:insensitive="true" />
  <path
     style="display:inline;opacity:1;mix-blend-mode:normal;fill:#000000;fill-opacity:1"
     d="m 512.35882,428.51829 c 0,0 187.34642,-4.64052 183.77168,178.26699 -2.54062,129.99518 -74.94835,156.67171 -184.61855,208.75447 -95.27334,-57.164 -181.65449,-76.64211 -182.07793,-209.1779 -0.42344,-132.5358 113.05769,-179.96075 182.9248,-177.84356 z"
     id="path10"
     sodipodi:nodetypes="cscsc"
     sodipodi:insensitive="true" />
  <path
     style="display:inline;opacity:1;fill:#ffffff;fill-opacity:1;stroke-width:0.883985"
     d="m 512.09566,449.46551 v 0 c 12.92653,-2.54062 162.87477,6.04312 162.87477,157.16183 0,114.93569 -84.37912,160.82328 -161.92964,160.82328 -61.37772,0 -162.27353,-43.61454 -162.64785,-160.77414 -0.37431,-117.1596 100.20097,-157.21097 161.70272,-157.21097 z"
     id="path11"
     sodipodi:nodetypes="ccsssc"
     sodipodi:insensitive="true" />
  <path
     style="display:inline;opacity:1;fill:#ececec"
     d="m 373.47147,618.85323 c 0,0 72.05835,124.2953 272.0677,89.56313 -20.36023,32.33684 -82.63859,52.69708 -82.63859,52.69708 0,0 -43.11579,16.76725 -99.40585,-1.19766 -37.4269,-12.27603 -68.42798,-36.4736 -83.24827,-57.64545 -14.8203,-21.17185 -30.06403,-40.22652 -29.85231,-98.87255 l 4.44609,-7.41015 z"
     id="path14"
     sodipodi:nodetypes="ccccsccc"
     sodipodi:insensitive="true"
     inkscape:label="path15" />
  <path
     style="display:inline;opacity:1;fill:#000000"
     d="m 469.59045,452.69606 -9.6887,15.88873 c 0,0 -32.03743,10.47953 -59.88304,40.72047 -6.28772,2.69473 -44.61287,21.85731 -44.61287,21.85731 l -11.86108,54.76233 6.11771,15.2977 c 0,0 6.86838,16.98209 15.62407,23.05809 0,4.19182 7.7848,41.3193 19.46199,60.18246 -1.49707,4.49123 -3.59298,27.5462 -3.59298,27.5462 l 39.22339,42.81637 43.04314,6.8715 15.94166,-10.16507 c 0,0 37.4269,9.28187 70.36257,0.29942 4.79064,2.99415 20.95906,12.57544 20.95906,12.57544 l 59.88304,-27.5462 19.7614,-31.13918 -4.27075,-4.82747 c 0,0 -0.21172,-8.04531 -2.01133,-14.50272 1.0586,-1.90547 16.16279,-28.27683 18.85752,-63.60782 1.9462,-1.9462 14.67135,-17.36608 14.67135,-17.36608 l 0.44912,-50.75088 -22.15672,-40.12164 -8.23392,2.54503 -20.31311,-6.84842 c 0,0 -18.93558,-25.65764 -55.7746,-40.68966 -1.05859,-1.90546 -13.03392,-19.86184 -13.03392,-19.86184 l -46.15464,-9.73905 z"
     id="path5"
     sodipodi:nodetypes="cccccccccccccccccccccccccccc"
     inkscape:label="path13"
     sodipodi:insensitive="true" />
  <path
     style="display:inline;opacity:1;fill:#ffffff;fill-opacity:1"
     d="m 468.7345,455.41053 -68.56608,28.74386 47.60702,8.83275 -33.23509,-8.98246 z"
     id="path12"
     sodipodi:insensitive="true" />
  <path
     style="display:inline;fill:#ffffff"
     d="m 510.05379,496.58011 v 50.60117 l -54.04444,39.67251 -46.40936,-14.07251 c 0,0 -5.38947,-29.19298 -5.9883,-57.0386 2.09591,-2.69473 26.64795,-32.63625 60.48187,-43.11579 3.44328,1.64679 25.00117,9.731 45.96023,23.95322 z"
     id="path6"
     inkscape:label="path14"
     sodipodi:insensitive="true" />
  <path
     style="display:inline;fill:#ffffff"
     d="m 517.9883,496.72982 v 50.75087 l 53.89473,39.07369 47.1579,-15.12047 c 0,0 4.49122,-22.15673 1.34737,-58.53567 -2.09591,-2.69474 -21.10878,-27.09708 -52.84679,-36.97778 -2.54503,1.04795 -22.30643,2.99415 -49.55321,20.80936 z"
     id="path13"
     sodipodi:nodetypes="ccccccc"
     sodipodi:insensitive="true" />
  <path
     style="display:inline;fill:#ffffff"
     d="m 553.31929,658.56373 20.95906,-64.07485 47.45731,-16.01871 c 0,0 26.19883,26.49824 34.43275,44.01403 0,2.09591 -3.29357,30.83977 -17.36608,58.08655 -2.09591,0.59883 -30.98947,12.12632 -56.43977,16.01871 -2.0959,-2.69473 -29.04327,-38.02573 -29.04327,-38.02573 z"
     id="path15"
     sodipodi:insensitive="true" />
  <path
     style="display:inline;fill:#e6e6e6"
     d="m 373.2959,618.96607 -1.72164,2.76959 c 0,0 4.22611,39.67299 19.25813,58.51594 4.02265,1.05859 26.85181,11.0981 55.2214,14.1671 0.89825,-1.19766 6.36258,-8.15906 6.36258,-8.15906 l -3.36139,-40.30644 z"
     id="path17"
     inkscape:label="path16-Sombra"
     sodipodi:insensitive="true" />
  <path
     style="display:inline;fill:#ffffff"
     d="m 474.03776,658.23287 -20.32497,-62.66868 -46.7898,-15.45545 -33.60765,38.76908 c 0,0 25.45155,42.12062 79.12713,67.3019 1.69375,-2.11719 21.59529,-27.94685 21.59529,-27.94685 z"
     id="path16"
     sodipodi:nodetypes="cccccc"
     sodipodi:insensitive="true" />
  <path
     style="display:inline;fill:#ececec"
     d="m 569.62867,714.55 c 0,0 -12.59725,22.44216 -20.74841,31.01676 -1.58789,0.10586 -33.7691,8.89218 -68.80852,-1.37617 -2.11718,-2.54062 -18.63123,-24.34763 -27.73513,-44.24917 1.48203,-1.69375 4.57099,-6.79523 7.30315,-9.82681 1.42222,0.29942 1.42222,0.29942 1.42222,0.29942 0.37427,-0.44913 0.56141,-0.56141 0.56141,-0.56141 z"
     id="path19"
     inkscape:label="path18-Sombra"
     sodipodi:insensitive="true" />
  <path
     style="display:inline;fill:#ffffff"
     d="m 481.23619,662.25553 h 65.20931 l 29.74645,39.80308 -6.56328,12.49139 c 0,0 -56.58072,0.4535 -110.02634,-24.39796 1.64679,-2.39532 21.63386,-27.89651 21.63386,-27.89651 z"
     id="path18"
     sodipodi:insensitive="true" />
</svg>
